<svg xmlns="http://www.w3.org/2000/svg" viewBox="0 0 493.59 194.42"><defs><style>.cls-1,.cls-2{fill:#191b28;}.cls-2{font-size:49.96px;font-family:Gotham-Black, Gotham;font-weight:800;}.cls-3{letter-spacing:0.01em;}.cls-4{letter-spacing:0em;}.cls-5{letter-spacing:0em;}.cls-6{fill:#06df86;}</style></defs><title>codeFichier 1</title><g id="Calque_2" data-name="Calque 2"><g id="Calque_2-2" data-name="Calque 2"><path class="cls-1" d="M177.76,110.11h15.15c4.44-1,3.53-10.6,3.53-10.6H188.3C180.63,99,174.22,93,174.22,93S172.62,109.71,177.76,110.11Z"/><path class="cls-1" d="M173.05,40.7a31.11,31.11,0,0,1-8.89,0c-.31-.06-4-.8-5.24-4a5.52,5.52,0,0,1-.25-3c.53-2.52,2.94-4.54,6.09-5.23h8.29A12.52,12.52,0,0,1,177.68,31a5.59,5.59,0,0,1,1.95,3.65c.14,2.72-2.44,4.54-2.92,4.87A8.27,8.27,0,0,1,173.05,40.7Z"/><path class="cls-1" d="M318.36,67a8.53,8.53,0,0,0-8.14,6h0c-.19,0-5-.08-8.49,0s-6.14,3.25-6.14,3.25-3.36,3.07-4.75,4.75a4.52,4.52,0,0,1-2.89,1.76h-5a5.5,5.5,0,0,1-2.51-1.67s-3.21-2.95-5.3-5.39-6-2.7-6-2.7H243.57l0-11.64h34.12a8.53,8.53,0,1,0,0-5.71H243.57V44.56H250a13.74,13.74,0,0,0,6.24-3.26s7.75-7.65,9.17-9.2a5.51,5.51,0,0,1,3.29-1.72h19.51a8.52,8.52,0,1,0-.12-5.44s-16.59-.16-20.26,0-7.08,3.46-7.08,3.46-6.59,6.05-8.34,8.13a4.72,4.72,0,0,1-3.68,1.93H190.81s5-8.85,10.18-17.62a19.37,19.37,0,0,1,14.73-9.2h43a8.51,8.51,0,1,0-.18-5.77H214.14C203,7,196.79,16.3,196.79,16.3L182.2,41C170.66,47.49,171,58.45,171,58.45V78.8c2.27,15.29,17.11,16.9,17.11,16.9l11.57-.07s5.59-6.81,8.55-10.49a13.53,13.53,0,0,1,7-4.52l25.22.19v3.7s-22.76-.25-25,.13-4.15,2.76-4.15,2.76l-6.85,8.36s56.06-.19,58,.06,3.39,2.33,3.39,2.33.79,1,4.41,4.39,6.84,3.21,6.84,3.21h23.37a8.52,8.52,0,1,0,.23-5.7v0s-20.32.06-23,0-4.59-3-4.59-3-.53-.63-3.4-3.57-7.54-3.65-7.54-3.65H243.57v-11s23.74-.13,25.28,0,3.07,2,3.07,2a31.12,31.12,0,0,1,4.62,4.51c1.81,2.32,6.18,3.25,6.18,3.25s2.84.1,5.87,0,6.15-3.25,6.15-3.25,3.19-3.12,5.07-5.07,3-1.68,3-1.68l7.57,0A8.53,8.53,0,1,0,318.36,67ZM285.67,55.9A2.72,2.72,0,1,1,283,58.62,2.73,2.73,0,0,1,285.67,55.9Zm10.51-31a2.72,2.72,0,1,1-2.72,2.72A2.72,2.72,0,0,1,296.18,24.94ZM266.62,6A2.72,2.72,0,1,1,263.9,8.7,2.72,2.72,0,0,1,266.62,6ZM201.41,69.63a3.24,3.24,0,0,1-1.7,1.07,12.13,12.13,0,0,1-3.69.73,23.78,23.78,0,0,1-4.52-.1c-1.62-.21-12.93-1.71-15.59-8.69a7.11,7.11,0,0,1-.49-3.3,8.05,8.05,0,0,1,5-6.31c2.9-1.07,6,.85,12.3,4.71,0,0,8.11,5,9,9.27A3.36,3.36,0,0,1,201.41,69.63Zm39.05-12.39h-33.6A18.43,18.43,0,0,1,201.55,56c-1.93-1-13.15-7.77-13.15-7.77a3,3,0,0,1,.21-2.16c.59-.89,2-.75,2-.75l11.23,6.57a11,11,0,0,0,5.53,1.62l33.05,0Zm68.2,43.44a2.72,2.72,0,1,1-2.72,2.72A2.72,2.72,0,0,1,308.66,100.68Zm9.7-22.3a2.72,2.72,0,1,1,2.72-2.72A2.71,2.71,0,0,1,318.36,78.38Z"/><text class="cls-2" transform="translate(0 184.85) scale(1.03 1.07)">C<tspan class="cls-3" x="36.47" y="0">ent</tspan><tspan x="121.4" y="0">r</tspan><tspan class="cls-3" x="142.79" y="0" xml:space="preserve">e  </tspan><tspan class="cls-4" x="202.19" y="0">A</tspan><tspan class="cls-3" x="241.81" y="0">u</tspan><tspan class="cls-5" x="273.98" y="0">t</tspan><tspan class="cls-3" x="295.27" y="0" xml:space="preserve">o  </tspan><tspan x="357.22" y="0">C</tspan><tspan class="cls-3" x="393.69" y="0">cas</tspan></text><path class="cls-6" d="M198,139.84c-.94,3.33-5.72,7.41-5.72,7.41l-11,10-3.73-14.3s-1.38-6.12-.55-9.06a10.92,10.92,0,0,1,21,6Z"/><circle class="cls-1" cx="187.18" cy="137.04" r="3.67"/><path class="cls-6" d="M355.93,139.84c-.95,3.33-5.73,7.41-5.73,7.41l-11,10-3.73-14.3s-1.38-6.12-.55-9.06a10.92,10.92,0,0,1,21,6Z"/><circle class="cls-1" cx="345.1" cy="137.04" r="3.67"/><circle class="cls-6" cx="285.67" cy="58.62" r="2.83"/><circle class="cls-6" cx="296.18" cy="27.66" r="2.83"/><circle class="cls-6" cx="266.62" cy="8.7" r="2.83"/><circle class="cls-6" cx="318.36" cy="75.66" r="2.83"/><circle class="cls-6" cx="308.66" cy="103.4" r="2.83"/></g></g></svg>